<svg xmlns="http://www.w3.org/2000/svg" width="600" height="600" viewBox="0 0 600 600" fill="none"><rect width="600" height="600" fill="#FFFFFF"/><rect x="60" y="60" width="480" height="480" rx="32" fill="#F6F6F6"/><circle cx="440" cy="160" r="90" fill="#F4C241" opacity=".22"/><g transform="translate(150 140) scale(1.5)"><rect x="36" y="30" width="128" height="150" rx="10" fill="#FFFFFF" stroke="#3F3F3F" stroke-width="6"/><rect x="46" y="44" width="108" height="112" rx="6" fill="#F6F6F6" stroke="#3F3F3F" stroke-width="4"/><rect x="54" y="74" width="92" height="14" rx="3" fill="#E8E8E8"/><rect x="54" y="98" width="92" height="14" rx="3" fill="#E8E8E8"/><rect x="54" y="122" width="92" height="14" rx="3" fill="#E8E8E8"/><rect x="54" y="74" width="30" height="14" rx="3" fill="#F4C241"/><rect x="92" y="98" width="30" height="14" rx="3" fill="#F4C241"/><circle cx="150" cy="106" r="5" fill="#3F3F3F"/></g><rect x="380" y="470" width="150" height="44" rx="10" fill="#3F3F3F"/><text x="455" y="499" font-family="Inter, Arial" font-size="20" font-weight="700" fill="#F4C241" text-anchor="middle">ЩРН</text></svg>