<svg xmlns="http://www.w3.org/2000/svg" width="480" height="300" viewBox="0 0 480 300" fill="none"><defs><linearGradient id="sky" x1="0" y1="0" x2="0" y2="1"><stop offset="0" stop-color="#FFF5D6"/><stop offset="1" stop-color="#F6F6F6"/></linearGradient></defs><rect width="480" height="300" fill="url(#sky)"/><circle cx="300" cy="70" r="34" fill="#F4C241"/><rect x="0" y="250" width="480" height="50" fill="#3F3F3F"/><path d="M100 250 L120 120 L140 250 M104 200 h32 M110 160 h20" stroke="#3F3F3F" stroke-width="5" stroke-linejoin="round" fill="none"/><path d="M210 250 L230 120 L250 250 M214 200 h32 M220 160 h20" stroke="#3F3F3F" stroke-width="5" stroke-linejoin="round" fill="none"/><path d="M320 250 L340 120 L360 250 M324 200 h32 M330 160 h20" stroke="#3F3F3F" stroke-width="5" stroke-linejoin="round" fill="none"/><path d="M120 122 Q175 150 230 122" stroke="#3F3F3F" stroke-width="3" fill="none" opacity=".7"/><path d="M230 122 Q285 150 340 122" stroke="#3F3F3F" stroke-width="3" fill="none" opacity=".7"/><rect x="0" y="288" width="480" height="12" fill="#F4C241"/></svg>