<svg xmlns="http://www.w3.org/2000/svg" width="480" height="300" viewBox="0 0 480 300" fill="none"><defs><linearGradient id="sky" x1="0" y1="0" x2="0" y2="1"><stop offset="0" stop-color="#FFF5D6"/><stop offset="1" stop-color="#F6F6F6"/></linearGradient></defs><rect width="480" height="300" fill="url(#sky)"/><circle cx="280" cy="70" r="34" fill="#F4C241"/><rect x="0" y="250" width="480" height="50" fill="#3F3F3F"/><path d="M110 250 L130 120 L150 250 M114 200 h32 M120 160 h20" stroke="#3F3F3F" stroke-width="5" stroke-linejoin="round" fill="none"/><path d="M220 250 L240 120 L260 250 M224 200 h32 M230 160 h20" stroke="#3F3F3F" stroke-width="5" stroke-linejoin="round" fill="none"/><path d="M330 250 L350 120 L370 250 M334 200 h32 M340 160 h20" stroke="#3F3F3F" stroke-width="5" stroke-linejoin="round" fill="none"/><path d="M130 122 Q185 150 240 122" stroke="#3F3F3F" stroke-width="3" fill="none" opacity=".7"/><path d="M240 122 Q295 150 350 122" stroke="#3F3F3F" stroke-width="3" fill="none" opacity=".7"/><rect x="0" y="288" width="480" height="12" fill="#F4C241"/></svg>