<svg xmlns="http://www.w3.org/2000/svg" width="600" height="320" viewBox="0 0 600 320" fill="none"><circle cx="440" cy="120" r="110" fill="#F4C241" opacity=".16"/><circle cx="470" cy="150" r="70" fill="#F4C241" opacity=".12"/><path d="M40 280 h520" stroke="#FFFFFF" stroke-opacity=".12" stroke-width="2"/><g transform="translate(120 40) scale(1.15)"><path d="M20 60 L20 150 L180 150 L180 60" stroke="#FFFFFF" stroke-width="6" stroke-linecap="round" stroke-linejoin="round"/><path d="M20 60 L60 40 L180 40" stroke="#FFFFFF" stroke-width="6" stroke-linejoin="round" opacity=".35"/><path d="M180 60 L180 150" stroke="#FFFFFF" stroke-width="6" stroke-linecap="round" stroke-linejoin="round"/><rect x="46" y="82" width="10" height="16" rx="3" fill="#F4C241"/><rect x="46" y="112" width="10" height="16" rx="3" fill="#F4C241"/><rect x="68" y="82" width="10" height="16" rx="3" fill="#F4C241"/><rect x="68" y="112" width="10" height="16" rx="3" fill="#F4C241"/><rect x="90" y="82" width="10" height="16" rx="3" fill="#F4C241"/><rect x="90" y="112" width="10" height="16" rx="3" fill="#F4C241"/><rect x="112" y="82" width="10" height="16" rx="3" fill="#F4C241"/><rect x="112" y="112" width="10" height="16" rx="3" fill="#F4C241"/><rect x="134" y="82" width="10" height="16" rx="3" fill="#F4C241"/><rect x="134" y="112" width="10" height="16" rx="3" fill="#F4C241"/><path d="M20 150 L180 150" stroke="#FFFFFF" stroke-width="10"/></g><g transform="translate(360 90) scale(0.85)"><rect x="60" y="30" width="80" height="140" rx="10" fill="#FFFFFF" stroke="#FFFFFF" stroke-width="6"/><rect x="84" y="70" width="32" height="56" rx="6" fill="#FFFFFF"/><rect x="88" y="74" width="24" height="24" rx="4" fill="#F4C241"/><path d="M72 46 h56 M72 154 h56" stroke="#FFFFFF" stroke-width="6" stroke-linecap="round" stroke-linejoin="round"/><text x="100" y="146" font-family="Inter, Arial" font-size="14" font-weight="700" fill="#FFFFFF" text-anchor="middle">C16</text></g><path d="M110 290 h380" stroke="#F4C241" stroke-width="4" stroke-dasharray="14 10" opacity=".8"/></svg>