<svg xmlns="http://www.w3.org/2000/svg" width="65" height="65" viewBox="0 0 65 65" fill="none">
<path d="M1.66 3.47L1.67 3.49L1.69 3.5L1.7 3.51L1.71 3.52L1.72 3.53L1.74 3.54L1.75 3.55L1.76 3.56L1.77 3.57L1.79 3.58L1.8 3.59L1.81 3.6L1.82 3.61L1.84 3.62L1.85 3.63L1.86 3.64L1.88 3.65L1.89 3.66L1.9 3.67L1.92 3.67L1.93 3.68L1.94 3.69L1.96 3.7L1.97 3.7L1.99 3.71L2 3.72L2.01 3.73L2.03 3.73L2.04 3.74L2.06 3.74L2.07 3.75L2.09 3.76L2.1 3.76L2.11 3.77L2.13 3.77L2.14 3.78L2.16 3.78L2.17 3.79L2.19 3.79L2.2 3.8L2.22 3.8L2.23 3.81L2.25 3.81L2.26 3.81L2.28 3.82L2.29 3.82L2.31 3.82L2.32 3.83L2.34 3.83L2.35 3.83L2.37 3.83L2.38 3.84L2.4 3.84L2.41 3.84L2.43 3.84L2.44 3.84L2.46 3.85L2.47 3.85L2.49 3.85L2.51 3.85L2.52 3.85L2.54 3.85L2.55 3.85L2.57 3.85L2.58 3.85L2.6 3.85L2.61 3.85L2.63 3.85L2.64 3.85L2.66 3.85L2.67 3.85L2.69 3.84L2.71 3.84L2.72 3.84L2.74 3.84L2.75 3.84L2.77 3.83L2.78 3.83L2.8 3.83L2.81 3.83L2.83 3.82L2.84 3.82L2.86 3.82L2.87 3.81L2.89 3.81L2.9 3.81L2.92 3.8L2.93 3.8L2.95 3.79L2.96 3.79L2.98 3.78L2.99 3.78L3 3.77L3.02 3.77L3.03 3.76L3.05 3.76L3.06 3.75L3.08 3.74L3.09 3.74L3.11 3.73L3.12 3.73L3.13 3.72L3.15 3.71L3.16 3.7L3.17 3.7L3.19 3.69L3.2 3.68L3.22 3.67L3.23 3.67L3.24 3.66L3.26 3.65L3.27 3.64L3.28 3.63L3.3 3.62L3.31 3.61L3.32 3.6L3.34 3.59L3.35 3.58L3.36 3.57L3.37 3.56L3.39 3.55L3.4 3.54L3.41 3.53L3.42 3.52L3.44 3.51L3.45 3.5L3.46 3.49L3.47 3.48L3.49 3.45L3.52 3.43L3.54 3.4L3.56 3.38L3.58 3.35L3.6 3.33L3.62 3.3L3.64 3.27L3.65 3.25L3.67 3.22L3.69 3.19L3.7 3.16L3.71 3.14L3.73 3.11L3.74 3.08L3.75 3.05L3.76 3.02L3.78 2.99L3.79 2.96L3.79 2.93L3.8 2.9L3.81 2.87L3.82 2.84L3.82 2.81L3.83 2.78L3.83 2.75L3.84 2.72L3.84 2.69L3.84 2.66L3.85 2.63L3.85 2.6L3.85 2.57L3.85 2.54L3.85 2.51L3.84 2.48L3.84 2.45L3.84 2.42L3.83 2.39L3.83 2.36L3.82 2.33L3.82 2.3L3.81 2.27L3.8 2.24L3.79 2.21L3.79 2.18L3.78 2.15L3.76 2.12L3.75 2.09L3.74 2.06L3.73 2.03L3.72 2L3.7 1.98L3.69 1.95L3.67 1.92L3.65 1.89L3.64 1.87L3.62 1.84L3.6 1.82L3.58 1.79L3.56 1.76L3.54 1.74L3.52 1.72L3.5 1.69L3.47 1.66L2.19 0.38L2.16 0.35L2.14 0.33L2.11 0.31L2.09 0.29L2.06 0.27L2.04 0.25L2.01 0.23L1.98 0.21L1.96 0.19L1.93 0.18L1.9 0.16L1.87 0.15L1.85 0.13L1.82 0.12L1.79 0.11L1.76 0.09L1.73 0.08L1.7 0.07L1.67 0.06L1.65 0.05L1.62 0.04L1.59 0.04L1.56 0.03L1.53 0.02L1.5 0.02L1.46 0.01L1.43 0.01L1.4 0.01L1.37 0L1.34 0L1.31 0L1.28 0L1.25 0L1.22 0L1.19 0L1.16 0.01L1.13 0.01L1.1 0.01L1.07 0.02L1.04 0.02L1.01 0.03L0.98 0.04L0.95 0.04L0.92 0.05L0.89 0.06L0.86 0.07L0.83 0.08L0.8 0.09L0.77 0.11L0.74 0.12L0.71 0.13L0.69 0.15L0.66 0.16L0.63 0.18L0.6 0.19L0.58 0.21L0.55 0.23L0.53 0.25L0.5 0.27L0.47 0.29L0.45 0.31L0.42 0.33L0.4 0.35L0.38 0.38L0.35 0.4L0.33 0.43L0.31 0.45L0.29 0.47L0.27 0.5L0.25 0.53L0.23 0.55L0.21 0.58L0.19 0.61L0.18 0.63L0.16 0.66L0.15 0.69L0.13 0.72L0.12 0.74L0.11 0.77L0.09 0.8L0.08 0.83L0.07 0.86L0.06 0.89L0.05 0.92L0.04 0.95L0.04 0.98L0.03 1.01L0.02 1.04L0.02 1.07L0.01 1.1L0.01 1.13L0.01 1.16L0 1.19L0 1.22L0 1.25L0 1.28L0 1.31L0 1.34L0 1.37L0.01 1.4L0.01 1.43L0.01 1.47L0.02 1.5L0.02 1.53L0.03 1.56L0.04 1.59L0.04 1.62L0.05 1.65L0.06 1.68L0.07 1.7L0.08 1.73L0.09 1.76L0.11 1.79L0.12 1.82L0.13 1.85L0.15 1.88L0.16 1.9L0.18 1.93L0.19 1.96L0.21 1.98L0.23 2.01L0.25 2.04L0.27 2.06L0.29 2.09L0.31 2.11L0.33 2.14L0.35 2.16L0.38 2.19L1.66 3.47Z" transform="matrix(1 0 0 1 17.01 8.67)" fill="#414141"/>
<path d="M1.28 3.85L1.29 3.85L1.31 3.85L1.32 3.85L1.34 3.85L1.35 3.85L1.37 3.85L1.39 3.85L1.4 3.84L1.42 3.84L1.43 3.84L1.45 3.84L1.46 3.84L1.48 3.83L1.49 3.83L1.51 3.83L1.52 3.83L1.54 3.82L1.55 3.82L1.57 3.82L1.58 3.81L1.6 3.81L1.61 3.81L1.63 3.8L1.64 3.8L1.66 3.79L1.67 3.79L1.69 3.78L1.7 3.78L1.72 3.77L1.73 3.77L1.75 3.76L1.76 3.76L1.77 3.75L1.79 3.74L1.8 3.74L1.82 3.73L1.83 3.72L1.84 3.72L1.86 3.71L1.87 3.7L1.89 3.7L1.9 3.69L1.91 3.68L1.93 3.67L1.94 3.66L1.96 3.66L1.97 3.65L1.98 3.64L1.99 3.63L2.01 3.62L2.02 3.61L2.03 3.6L2.05 3.59L2.06 3.58L2.07 3.57L2.09 3.56L2.1 3.55L2.11 3.54L2.12 3.53L2.13 3.52L2.15 3.51L2.16 3.5L2.17 3.48L2.18 3.47L3.47 2.19L3.49 2.16L3.52 2.14L3.54 2.11L3.56 2.09L3.58 2.06L3.6 2.04L3.62 2.01L3.63 1.98L3.65 1.96L3.67 1.93L3.68 1.9L3.7 1.87L3.71 1.85L3.73 1.82L3.74 1.79L3.75 1.76L3.76 1.73L3.77 1.7L3.78 1.67L3.79 1.64L3.8 1.61L3.81 1.58L3.81 1.55L3.82 1.52L3.83 1.49L3.83 1.46L3.83 1.43L3.84 1.4L3.84 1.37L3.84 1.34L3.84 1.31L3.84 1.28L3.84 1.25L3.84 1.22L3.84 1.19L3.84 1.16L3.83 1.13L3.83 1.1L3.83 1.07L3.82 1.03L3.81 1L3.81 0.97L3.8 0.94L3.79 0.92L3.78 0.89L3.77 0.86L3.76 0.83L3.75 0.8L3.74 0.77L3.73 0.74L3.71 0.71L3.7 0.69L3.68 0.66L3.67 0.63L3.65 0.6L3.63 0.58L3.62 0.55L3.6 0.52L3.58 0.5L3.56 0.47L3.54 0.45L3.52 0.42L3.49 0.4L3.47 0.38L3.45 0.35L3.42 0.33L3.4 0.31L3.37 0.29L3.35 0.27L3.32 0.25L3.29 0.23L3.27 0.21L3.24 0.19L3.21 0.18L3.19 0.16L3.16 0.15L3.13 0.13L3.1 0.12L3.07 0.11L3.05 0.09L3.02 0.08L2.99 0.07L2.96 0.06L2.93 0.05L2.9 0.04L2.87 0.04L2.84 0.03L2.81 0.02L2.78 0.02L2.75 0.01L2.72 0.01L2.69 0.01L2.66 0L2.63 0L2.6 0L2.57 0L2.53 0L2.5 0L2.47 0L2.44 0.01L2.41 0.01L2.38 0.01L2.35 0.02L2.32 0.02L2.29 0.03L2.26 0.04L2.23 0.04L2.2 0.05L2.17 0.06L2.14 0.07L2.11 0.08L2.08 0.09L2.06 0.11L2.03 0.12L2 0.13L1.97 0.15L1.94 0.16L1.92 0.18L1.89 0.19L1.86 0.21L1.84 0.23L1.81 0.25L1.78 0.27L1.76 0.29L1.73 0.31L1.71 0.33L1.68 0.35L1.66 0.38L0.38 1.66L0.35 1.69L0.33 1.71L0.31 1.74L0.29 1.76L0.27 1.79L0.25 1.81L0.23 1.84L0.21 1.87L0.19 1.89L0.18 1.92L0.16 1.95L0.15 1.98L0.13 2L0.12 2.03L0.11 2.06L0.09 2.09L0.08 2.12L0.07 2.15L0.06 2.18L0.05 2.21L0.04 2.24L0.04 2.27L0.03 2.3L0.02 2.33L0.02 2.36L0.01 2.39L0.01 2.42L0.01 2.45L0 2.48L0 2.51L0 2.54L0 2.57L0 2.6L0 2.63L0 2.66L0.01 2.69L0.01 2.72L0.01 2.75L0.02 2.79L0.02 2.82L0.03 2.85L0.04 2.88L0.04 2.91L0.05 2.94L0.06 2.96L0.07 2.99L0.08 3.02L0.09 3.05L0.11 3.08L0.12 3.11L0.13 3.14L0.15 3.16L0.16 3.19L0.18 3.22L0.19 3.25L0.21 3.27L0.23 3.3L0.25 3.33L0.27 3.35L0.29 3.38L0.31 3.4L0.33 3.43L0.35 3.45L0.38 3.48L0.39 3.49L0.4 3.5L0.41 3.51L0.42 3.52L0.43 3.53L0.45 3.54L0.46 3.55L0.47 3.56L0.48 3.57L0.5 3.58L0.51 3.59L0.52 3.6L0.54 3.61L0.55 3.62L0.56 3.63L0.58 3.64L0.59 3.65L0.6 3.66L0.62 3.66L0.63 3.67L0.64 3.68L0.66 3.69L0.67 3.7L0.68 3.7L0.7 3.71L0.71 3.72L0.73 3.72L0.74 3.73L0.75 3.74L0.77 3.74L0.78 3.75L0.8 3.76L0.81 3.76L0.83 3.77L0.84 3.77L0.86 3.78L0.87 3.78L0.88 3.79L0.9 3.79L0.91 3.8L0.93 3.8L0.94 3.81L0.96 3.81L0.97 3.81L0.99 3.82L1 3.82L1.02 3.82L1.03 3.83L1.05 3.83L1.06 3.83L1.08 3.83L1.09 3.84L1.11 3.84L1.13 3.84L1.14 3.84L1.16 3.84L1.17 3.85L1.19 3.85L1.2 3.85L1.22 3.85L1.23 3.85L1.25 3.85L1.26 3.85L1.28 3.85Z" transform="matrix(1 0 0 1 44.14 8.67)" fill="#414141"/>
<path d="M1.28 2.56L3.1 2.56L3.13 2.56L3.17 2.56L3.2 2.56L3.23 2.55L3.26 2.55L3.3 2.54L3.33 2.54L3.36 2.53L3.39 2.53L3.42 2.52L3.45 2.51L3.48 2.5L3.51 2.49L3.54 2.48L3.57 2.47L3.6 2.46L3.63 2.45L3.65 2.43L3.68 2.42L3.71 2.41L3.74 2.39L3.76 2.37L3.79 2.36L3.81 2.34L3.84 2.32L3.86 2.31L3.89 2.29L3.91 2.27L3.94 2.25L3.96 2.23L3.98 2.21L4 2.18L4.03 2.16L4.05 2.14L4.07 2.12L4.09 2.09L4.11 2.07L4.13 2.04L4.14 2.02L4.16 1.99L4.18 1.97L4.19 1.94L4.21 1.92L4.23 1.89L4.24 1.86L4.25 1.83L4.27 1.81L4.28 1.78L4.29 1.75L4.3 1.72L4.31 1.69L4.32 1.66L4.33 1.63L4.34 1.6L4.35 1.57L4.35 1.54L4.36 1.51L4.36 1.48L4.37 1.44L4.37 1.41L4.38 1.38L4.38 1.35L4.38 1.31L4.38 1.28L4.38 1.25L4.38 1.21L4.38 1.18L4.37 1.15L4.37 1.12L4.36 1.08L4.36 1.05L4.35 1.02L4.35 0.99L4.34 0.96L4.33 0.93L4.32 0.9L4.31 0.87L4.3 0.84L4.29 0.81L4.28 0.78L4.27 0.75L4.25 0.73L4.24 0.7L4.23 0.67L4.21 0.64L4.19 0.62L4.18 0.59L4.16 0.56L4.14 0.54L4.13 0.51L4.11 0.49L4.09 0.47L4.07 0.44L4.05 0.42L4.03 0.4L4 0.37L3.98 0.35L3.96 0.33L3.94 0.31L3.91 0.29L3.89 0.27L3.86 0.25L3.84 0.24L3.81 0.22L3.79 0.2L3.76 0.18L3.74 0.17L3.71 0.15L3.68 0.14L3.65 0.13L3.63 0.11L3.6 0.1L3.57 0.09L3.54 0.08L3.51 0.07L3.48 0.06L3.45 0.05L3.42 0.04L3.39 0.03L3.36 0.03L3.33 0.02L3.3 0.01L3.26 0.01L3.23 0.01L3.2 0L3.17 0L3.13 0L3.1 0L1.28 0L1.25 0L1.21 0L1.18 0L1.15 0.01L1.12 0.01L1.08 0.01L1.05 0.02L1.02 0.03L0.99 0.03L0.96 0.04L0.93 0.05L0.9 0.06L0.87 0.07L0.84 0.08L0.81 0.09L0.78 0.1L0.75 0.11L0.73 0.13L0.7 0.14L0.67 0.15L0.64 0.17L0.62 0.18L0.59 0.2L0.56 0.22L0.54 0.24L0.51 0.25L0.49 0.27L0.47 0.29L0.44 0.31L0.42 0.33L0.4 0.35L0.37 0.37L0.35 0.4L0.33 0.42L0.31 0.44L0.29 0.47L0.27 0.49L0.25 0.51L0.24 0.54L0.22 0.56L0.2 0.59L0.18 0.62L0.17 0.64L0.15 0.67L0.14 0.7L0.13 0.73L0.11 0.75L0.1 0.78L0.09 0.81L0.08 0.84L0.07 0.87L0.06 0.9L0.05 0.93L0.04 0.96L0.03 0.99L0.03 1.02L0.02 1.05L0.01 1.08L0.01 1.12L0.01 1.15L0 1.18L0 1.21L0 1.25L0 1.28L0 1.31L0 1.35L0 1.38L0.01 1.41L0.01 1.44L0.01 1.48L0.02 1.51L0.03 1.54L0.03 1.57L0.04 1.6L0.05 1.63L0.06 1.66L0.07 1.69L0.08 1.72L0.09 1.75L0.1 1.78L0.11 1.81L0.13 1.83L0.14 1.86L0.15 1.89L0.17 1.92L0.18 1.94L0.2 1.97L0.22 1.99L0.24 2.02L0.25 2.05L0.27 2.07L0.29 2.09L0.31 2.12L0.33 2.14L0.35 2.16L0.37 2.18L0.4 2.21L0.42 2.23L0.44 2.25L0.47 2.27L0.49 2.29L0.51 2.31L0.54 2.32L0.56 2.34L0.59 2.36L0.62 2.37L0.64 2.39L0.67 2.41L0.7 2.42L0.72 2.43L0.75 2.45L0.78 2.46L0.81 2.47L0.84 2.48L0.87 2.49L0.9 2.5L0.93 2.51L0.96 2.52L0.99 2.53L1.02 2.53L1.05 2.54L1.08 2.54L1.12 2.55L1.15 2.55L1.18 2.56L1.21 2.56L1.25 2.56L1.28 2.56Z" transform="matrix(1 0 0 1 49.5 22.88)" fill="#414141"/>
<path d="M1.28 2.56L3.1 2.56L3.13 2.56L3.17 2.56L3.2 2.56L3.23 2.55L3.26 2.55L3.3 2.54L3.33 2.54L3.36 2.53L3.39 2.53L3.42 2.52L3.45 2.51L3.48 2.5L3.51 2.49L3.54 2.48L3.57 2.47L3.6 2.46L3.63 2.45L3.65 2.43L3.68 2.42L3.71 2.41L3.74 2.39L3.76 2.37L3.79 2.36L3.81 2.34L3.84 2.32L3.86 2.31L3.89 2.29L3.91 2.27L3.94 2.25L3.96 2.23L3.98 2.21L4 2.18L4.03 2.16L4.05 2.14L4.07 2.12L4.09 2.09L4.11 2.07L4.13 2.04L4.14 2.02L4.16 1.99L4.18 1.97L4.19 1.94L4.21 1.92L4.23 1.89L4.24 1.86L4.25 1.83L4.27 1.81L4.28 1.78L4.29 1.75L4.3 1.72L4.31 1.69L4.32 1.66L4.33 1.63L4.34 1.6L4.35 1.57L4.35 1.54L4.36 1.51L4.36 1.48L4.37 1.44L4.37 1.41L4.38 1.38L4.38 1.35L4.38 1.31L4.38 1.28L4.38 1.25L4.38 1.21L4.38 1.18L4.37 1.15L4.37 1.12L4.36 1.08L4.36 1.05L4.35 1.02L4.35 0.99L4.34 0.96L4.33 0.93L4.32 0.9L4.31 0.87L4.3 0.84L4.29 0.81L4.28 0.78L4.27 0.75L4.25 0.73L4.24 0.7L4.23 0.67L4.21 0.64L4.19 0.62L4.18 0.59L4.16 0.56L4.14 0.54L4.13 0.51L4.11 0.49L4.09 0.47L4.07 0.44L4.05 0.42L4.03 0.4L4 0.37L3.98 0.35L3.96 0.33L3.94 0.31L3.91 0.29L3.89 0.27L3.86 0.25L3.84 0.24L3.81 0.22L3.79 0.2L3.76 0.18L3.74 0.17L3.71 0.15L3.68 0.14L3.65 0.13L3.63 0.11L3.6 0.1L3.57 0.09L3.54 0.08L3.51 0.07L3.48 0.06L3.45 0.05L3.42 0.04L3.39 0.03L3.36 0.03L3.33 0.02L3.3 0.01L3.26 0.01L3.23 0.01L3.2 0L3.17 0L3.13 0L3.1 0L1.28 0L1.25 0L1.21 0L1.18 0L1.15 0.01L1.12 0.01L1.08 0.01L1.05 0.02L1.02 0.03L0.99 0.03L0.96 0.04L0.93 0.05L0.9 0.06L0.87 0.07L0.84 0.08L0.81 0.09L0.78 0.1L0.75 0.11L0.73 0.13L0.7 0.14L0.67 0.15L0.64 0.17L0.62 0.18L0.59 0.2L0.56 0.22L0.54 0.24L0.51 0.25L0.49 0.27L0.47 0.29L0.44 0.31L0.42 0.33L0.4 0.35L0.37 0.37L0.35 0.4L0.33 0.42L0.31 0.44L0.29 0.47L0.27 0.49L0.25 0.51L0.24 0.54L0.22 0.56L0.2 0.59L0.18 0.62L0.17 0.64L0.15 0.67L0.14 0.7L0.13 0.73L0.11 0.75L0.1 0.78L0.09 0.81L0.08 0.84L0.07 0.87L0.06 0.9L0.05 0.93L0.04 0.96L0.03 0.99L0.03 1.02L0.02 1.05L0.01 1.08L0.01 1.12L0.01 1.15L0 1.18L0 1.21L0 1.25L0 1.28L0 1.31L0 1.35L0 1.38L0.01 1.41L0.01 1.44L0.01 1.48L0.02 1.51L0.03 1.54L0.03 1.57L0.04 1.6L0.05 1.63L0.06 1.66L0.07 1.69L0.08 1.72L0.09 1.75L0.1 1.78L0.11 1.81L0.13 1.83L0.14 1.86L0.15 1.89L0.17 1.92L0.18 1.94L0.2 1.97L0.22 1.99L0.24 2.02L0.25 2.04L0.27 2.07L0.29 2.09L0.31 2.12L0.33 2.14L0.35 2.16L0.37 2.18L0.4 2.21L0.42 2.23L0.44 2.25L0.47 2.27L0.49 2.29L0.51 2.31L0.54 2.32L0.56 2.34L0.59 2.36L0.62 2.37L0.64 2.39L0.67 2.41L0.7 2.42L0.73 2.43L0.75 2.45L0.78 2.46L0.81 2.47L0.84 2.48L0.87 2.49L0.9 2.5L0.93 2.51L0.96 2.52L0.99 2.53L1.02 2.53L1.05 2.54L1.08 2.54L1.12 2.55L1.15 2.55L1.18 2.56L1.21 2.56L1.25 2.56L1.28 2.56Z" transform="matrix(1 0 0 1 11.12 22.88)" fill="#414141"/>
<path d="M1.28 4.38L1.31 4.38L1.35 4.38L1.38 4.38L1.41 4.37L1.44 4.37L1.48 4.37L1.51 4.36L1.54 4.36L1.57 4.35L1.6 4.34L1.63 4.33L1.66 4.32L1.69 4.31L1.72 4.3L1.75 4.29L1.78 4.28L1.81 4.27L1.83 4.26L1.86 4.24L1.89 4.23L1.92 4.21L1.94 4.2L1.97 4.18L1.99 4.16L2.02 4.15L2.04 4.13L2.07 4.11L2.09 4.09L2.12 4.07L2.14 4.05L2.16 4.03L2.18 4.01L2.21 3.98L2.23 3.96L2.25 3.94L2.27 3.92L2.29 3.89L2.31 3.87L2.32 3.84L2.34 3.82L2.36 3.79L2.37 3.76L2.39 3.74L2.41 3.71L2.42 3.68L2.43 3.66L2.45 3.63L2.46 3.6L2.47 3.57L2.48 3.54L2.49 3.51L2.5 3.48L2.51 3.45L2.52 3.42L2.53 3.39L2.53 3.36L2.54 3.33L2.54 3.3L2.55 3.27L2.55 3.23L2.56 3.2L2.56 3.17L2.56 3.13L2.56 3.1L2.56 1.28L2.56 1.25L2.56 1.21L2.56 1.18L2.55 1.15L2.55 1.12L2.54 1.08L2.54 1.05L2.53 1.02L2.53 0.99L2.52 0.96L2.51 0.93L2.5 0.9L2.49 0.87L2.48 0.84L2.47 0.81L2.46 0.78L2.45 0.75L2.43 0.73L2.42 0.7L2.41 0.67L2.39 0.64L2.37 0.62L2.36 0.59L2.34 0.56L2.32 0.54L2.31 0.51L2.29 0.49L2.27 0.47L2.25 0.44L2.23 0.42L2.21 0.4L2.18 0.37L2.16 0.35L2.14 0.33L2.12 0.31L2.09 0.29L2.07 0.27L2.04 0.25L2.02 0.24L1.99 0.22L1.97 0.2L1.94 0.18L1.92 0.17L1.89 0.15L1.86 0.14L1.83 0.13L1.81 0.11L1.78 0.1L1.75 0.09L1.72 0.08L1.69 0.07L1.66 0.06L1.63 0.05L1.6 0.04L1.57 0.03L1.54 0.03L1.51 0.02L1.48 0.01L1.44 0.01L1.41 0.01L1.38 0L1.35 0L1.31 0L1.28 0L1.25 0L1.21 0L1.18 0L1.15 0.01L1.12 0.01L1.08 0.01L1.05 0.02L1.02 0.03L0.99 0.03L0.96 0.04L0.93 0.05L0.9 0.06L0.87 0.07L0.84 0.08L0.81 0.09L0.78 0.1L0.75 0.11L0.73 0.13L0.7 0.14L0.67 0.15L0.64 0.17L0.62 0.18L0.59 0.2L0.56 0.22L0.54 0.24L0.51 0.25L0.49 0.27L0.47 0.29L0.44 0.31L0.42 0.33L0.4 0.35L0.37 0.37L0.35 0.4L0.33 0.42L0.31 0.44L0.29 0.47L0.27 0.49L0.25 0.51L0.24 0.54L0.22 0.56L0.2 0.59L0.18 0.62L0.17 0.64L0.15 0.67L0.14 0.7L0.13 0.73L0.11 0.75L0.1 0.78L0.09 0.81L0.08 0.84L0.07 0.87L0.06 0.9L0.05 0.93L0.04 0.96L0.03 0.99L0.03 1.02L0.02 1.05L0.01 1.08L0.01 1.12L0.01 1.15L0 1.18L0 1.21L0 1.25L0 1.28L0 3.1L0 3.13L0 3.17L0 3.2L0.01 3.23L0.01 3.26L0.01 3.3L0.02 3.33L0.03 3.36L0.03 3.39L0.04 3.42L0.05 3.45L0.06 3.48L0.07 3.51L0.08 3.54L0.09 3.57L0.1 3.6L0.11 3.63L0.13 3.66L0.14 3.68L0.15 3.71L0.17 3.74L0.19 3.76L0.2 3.79L0.22 3.82L0.24 3.84L0.25 3.87L0.27 3.89L0.29 3.92L0.31 3.94L0.33 3.96L0.35 3.98L0.38 4.01L0.4 4.03L0.42 4.05L0.44 4.07L0.47 4.09L0.49 4.11L0.51 4.13L0.54 4.15L0.56 4.16L0.59 4.18L0.62 4.2L0.64 4.21L0.67 4.23L0.7 4.24L0.73 4.26L0.75 4.27L0.78 4.28L0.81 4.29L0.84 4.3L0.87 4.31L0.9 4.32L0.93 4.33L0.96 4.34L0.99 4.35L1.02 4.36L1.05 4.36L1.08 4.37L1.12 4.37L1.15 4.37L1.18 4.38L1.21 4.38L1.25 4.38L1.28 4.38Z" transform="matrix(1 0 0 1 31.22 2.78)" fill="#414141"/>
<path d="M1.38 14L1.35 14L1.32 14L1.28 13.99L1.24 13.99L1.21 13.99L1.17 13.98L1.14 13.98L1.1 13.97L1.07 13.96L1.04 13.95L1 13.94L0.97 13.93L0.94 13.92L0.91 13.91L0.87 13.9L0.84 13.89L0.81 13.87L0.78 13.86L0.75 13.85L0.72 13.83L0.69 13.81L0.66 13.8L0.63 13.78L0.61 13.76L0.58 13.74L0.55 13.72L0.52 13.7L0.5 13.68L0.47 13.66L0.45 13.64L0.42 13.62L0.4 13.59L0.38 13.57L0.35 13.55L0.33 13.52L0.31 13.5L0.29 13.47L0.27 13.44L0.25 13.42L0.23 13.39L0.21 13.36L0.19 13.34L0.18 13.31L0.16 13.28L0.15 13.25L0.13 13.22L0.12 13.19L0.1 13.16L0.09 13.13L0.08 13.1L0.07 13.07L0.06 13.04L0.05 13L0.04 12.97L0.03 12.94L0.03 12.91L0.02 12.87L0.01 12.84L0.01 12.81L0.01 12.77L0 12.74L0 12.71L0 12.67L0 12.64L0 12.6L0.02 12.27L0.04 11.94L0.07 11.62L0.11 11.29L0.16 10.97L0.22 10.66L0.28 10.34L0.35 10.03L0.43 9.72L0.52 9.41L0.61 9.11L0.71 8.81L0.82 8.52L0.94 8.22L1.06 7.94L1.19 7.65L1.32 7.37L1.46 7.09L1.61 6.82L1.77 6.55L1.93 6.28L2.1 6.02L2.27 5.76L2.45 5.51L2.64 5.26L2.83 5.02L3.03 4.78L3.23 4.54L3.44 4.31L3.65 4.09L3.87 3.87L4.1 3.65L4.33 3.44L4.56 3.24L4.8 3.04L5.05 2.84L5.3 2.65L5.55 2.47L5.81 2.3L6.08 2.12L6.35 1.96L6.62 1.8L6.89 1.65L7.17 1.5L7.46 1.36L7.75 1.22L8.04 1.1L8.34 0.98L8.64 0.86L8.94 0.75L9.25 0.65L9.56 0.56L9.87 0.47L10.19 0.39L10.5 0.32L10.83 0.25L11.15 0.19L11.48 0.14L11.81 0.1L12.14 0.06L12.48 0.04L12.82 0.02L13.16 0L13.5 0L13.84 0L14.18 0.02L14.52 0.04L14.86 0.06L15.19 0.1L15.52 0.14L15.85 0.19L16.17 0.25L16.5 0.32L16.81 0.39L17.13 0.47L17.44 0.56L17.75 0.65L18.06 0.75L18.36 0.86L18.66 0.98L18.96 1.1L19.25 1.22L19.54 1.36L19.83 1.5L20.11 1.65L20.38 1.8L20.65 1.96L20.92 2.12L21.19 2.3L21.45 2.47L21.7 2.65L21.95 2.84L22.2 3.04L22.44 3.24L22.67 3.44L22.9 3.65L23.13 3.87L23.35 4.09L23.56 4.31L23.77 4.54L23.97 4.78L24.17 5.02L24.36 5.26L24.55 5.51L24.73 5.76L24.9 6.02L25.07 6.28L25.23 6.55L25.39 6.82L25.54 7.09L25.68 7.37L25.81 7.65L25.94 7.94L26.06 8.22L26.18 8.52L26.29 8.81L26.39 9.11L26.48 9.41L26.57 9.72L26.65 10.03L26.72 10.34L26.78 10.66L26.84 10.97L26.89 11.29L26.93 11.62L26.96 11.94L26.98 12.27L27 12.6L27 12.64L27 12.67L27 12.71L27 12.74L26.99 12.77L26.99 12.81L26.99 12.84L26.98 12.87L26.97 12.91L26.97 12.94L26.96 12.97L26.95 13L26.94 13.04L26.93 13.07L26.92 13.1L26.91 13.13L26.9 13.16L26.88 13.19L26.87 13.22L26.85 13.25L26.84 13.28L26.82 13.31L26.81 13.34L26.79 13.36L26.77 13.39L26.75 13.42L26.73 13.44L26.71 13.47L26.69 13.5L26.67 13.52L26.65 13.55L26.62 13.57L26.6 13.59L26.58 13.62L26.55 13.64L26.53 13.66L26.5 13.68L26.48 13.7L26.45 13.72L26.42 13.74L26.39 13.76L26.37 13.78L26.34 13.8L26.31 13.81L26.28 13.83L26.25 13.85L26.22 13.86L26.19 13.87L26.16 13.89L26.13 13.9L26.09 13.91L26.06 13.92L26.03 13.93L26 13.94L25.96 13.95L25.93 13.96L25.9 13.97L25.86 13.98L25.83 13.98L25.79 13.99L25.76 13.99L25.72 13.99L25.68 14L25.66 14L25.65 14L25.65 14L25.65 14L25.65 14L25.64 14L25.64 14L25.63 14L25.63 14L25.63 14L25.62 14L25.62 14L25.62 14L25.61 14L25.61 14L25.61 14L25.61 14L25.6 14L25.6 14L25.6 14L1.38 14Z" transform="matrix(1 0 0 1 19 10)" fill="#FFCC33"/>
<path d="M1.23 13.25L1.26 13.25L1.3 13.25L1.34 13.24L1.37 13.24L1.41 13.24L1.44 13.23L1.48 13.23L1.51 13.22L1.54 13.22L1.57 13.21L1.61 13.2L1.64 13.2L1.67 13.19L1.7 13.18L1.73 13.17L1.76 13.16L1.79 13.14L1.82 13.13L1.85 13.12L1.87 13.11L1.9 13.09L1.93 13.08L1.96 13.06L1.98 13.05L2.01 13.03L2.03 13.01L2.06 12.99L2.08 12.98L2.1 12.96L2.13 12.94L2.15 12.92L2.17 12.9L2.19 12.88L2.21 12.86L2.23 12.84L2.25 12.81L2.27 12.79L2.29 12.77L2.31 12.74L2.33 12.72L2.34 12.69L2.36 12.67L2.38 12.64L2.39 12.62L2.41 12.59L2.42 12.56L2.43 12.54L2.45 12.51L2.46 12.48L2.47 12.45L2.48 12.42L2.49 12.39L2.5 12.36L2.51 12.33L2.52 12.3L2.53 12.27L2.53 12.24L2.54 12.21L2.54 12.18L2.55 12.14L2.55 12.11L2.55 12.08L2.56 12.05L2.56 12L2.57 11.76L2.59 11.52L2.61 11.27L2.64 11.03L2.67 10.79L2.72 10.55L2.76 10.32L2.81 10.08L2.87 9.85L2.93 9.62L3 9.4L3.07 9.17L3.15 8.95L3.24 8.73L3.32 8.51L3.42 8.3L3.52 8.09L3.62 7.88L3.73 7.67L3.84 7.47L3.96 7.27L4.08 7.08L4.21 6.88L4.34 6.69L4.47 6.51L4.61 6.32L4.75 6.14L4.9 5.97L5.05 5.79L5.21 5.63L5.37 5.46L5.53 5.3L5.7 5.14L5.87 4.99L6.04 4.84L6.22 4.69L6.4 4.55L6.59 4.42L6.78 4.28L6.97 4.15L7.16 4.03L7.36 3.91L7.56 3.8L7.76 3.69L7.97 3.58L8.18 3.48L8.39 3.38L8.61 3.29L8.83 3.21L9.05 3.13L9.27 3.05L9.49 2.98L9.72 2.91L9.95 2.85L10.18 2.8L10.42 2.75L10.65 2.71L10.89 2.67L11.13 2.64L11.37 2.61L11.61 2.59L11.86 2.57L12.1 2.56L12.35 2.56L12.6 2.56L12.84 2.57L13.09 2.59L13.33 2.61L13.57 2.64L13.81 2.67L14.05 2.71L14.29 2.75L14.52 2.8L14.75 2.85L14.98 2.91L15.21 2.98L15.43 3.05L15.66 3.13L15.88 3.21L16.09 3.29L16.31 3.38L16.52 3.48L16.73 3.58L16.94 3.69L17.14 3.8L17.34 3.91L17.54 4.03L17.73 4.15L17.93 4.28L18.11 4.42L18.3 4.55L18.48 4.69L18.66 4.84L18.83 4.99L19 5.14L19.17 5.3L19.33 5.46L19.49 5.63L19.65 5.79L19.8 5.97L19.95 6.14L20.09 6.32L20.23 6.51L20.37 6.69L20.5 6.88L20.62 7.08L20.74 7.27L20.86 7.47L20.97 7.67L21.08 7.88L21.19 8.09L21.28 8.3L21.38 8.51L21.47 8.73L21.55 8.95L21.63 9.17L21.7 9.4L21.77 9.62L21.83 9.85L21.89 10.08L21.94 10.32L21.99 10.55L22.03 10.79L22.06 11.03L22.09 11.27L22.11 11.52L22.13 11.76L22.14 12L22.14 12.04L22.15 12.07L22.15 12.11L22.15 12.14L22.16 12.17L22.16 12.2L22.17 12.23L22.18 12.26L22.18 12.29L22.19 12.32L22.2 12.35L22.21 12.38L22.22 12.41L22.23 12.44L22.24 12.47L22.26 12.49L22.27 12.52L22.28 12.55L22.3 12.58L22.31 12.6L22.33 12.63L22.34 12.66L22.36 12.68L22.38 12.71L22.39 12.73L22.41 12.75L22.43 12.78L22.45 12.8L22.47 12.82L22.49 12.85L22.51 12.87L22.53 12.89L22.56 12.91L22.58 12.93L22.6 12.95L22.62 12.97L22.65 12.99L22.67 13L22.7 13.02L22.72 13.04L22.75 13.06L22.77 13.07L22.8 13.09L22.83 13.1L22.85 13.11L22.88 13.13L22.91 13.14L22.94 13.15L22.96 13.16L22.99 13.17L23.02 13.18L23.05 13.19L23.08 13.2L23.11 13.21L23.14 13.22L23.17 13.22L23.2 13.23L23.23 13.23L23.26 13.24L23.29 13.24L23.33 13.24L23.36 13.25L23.39 13.25L23.42 13.25L23.43 13.25L23.43 13.25L23.43 13.25L23.43 13.25L23.44 13.25L23.44 13.25L23.44 13.25L23.45 13.25L23.45 13.25L23.45 13.25L23.46 13.25L23.46 13.25L23.46 13.25L23.46 13.25L23.47 13.25L23.47 13.25L23.47 13.25L23.47 13.25L23.48 13.25L23.48 13.25L23.48 13.25L23.47 13.25L23.5 13.24L23.53 13.24L23.56 13.24L23.6 13.23L23.63 13.23L23.66 13.22L23.69 13.22L23.72 13.21L23.75 13.2L23.78 13.19L23.81 13.19L23.84 13.18L23.87 13.16L23.9 13.15L23.93 13.14L23.96 13.13L23.99 13.12L24.02 13.1L24.04 13.09L24.07 13.07L24.1 13.05L24.12 13.04L24.15 13.02L24.17 13L24.2 12.98L24.22 12.97L24.25 12.95L24.27 12.93L24.29 12.91L24.31 12.88L24.34 12.86L24.36 12.84L24.38 12.82L24.4 12.79L24.42 12.77L24.44 12.75L24.46 12.72L24.47 12.7L24.49 12.67L24.51 12.65L24.52 12.62L24.54 12.59L24.55 12.56L24.57 12.54L24.58 12.51L24.59 12.48L24.61 12.45L24.62 12.42L24.63 12.39L24.64 12.37L24.65 12.34L24.66 12.31L24.66 12.28L24.67 12.24L24.68 12.21L24.68 12.18L24.69 12.15L24.69 12.12L24.7 12.09L24.7 12.06L24.7 12.02L24.7 11.99L24.7 11.96L24.7 11.92L24.69 11.61L24.66 11.3L24.64 10.99L24.6 10.69L24.55 10.38L24.5 10.08L24.44 9.79L24.38 9.49L24.31 9.2L24.23 8.91L24.14 8.62L24.05 8.34L23.95 8.06L23.85 7.78L23.73 7.51L23.62 7.24L23.49 6.97L23.36 6.71L23.23 6.45L23.08 6.2L22.94 5.94L22.78 5.7L22.62 5.45L22.46 5.21L22.29 4.98L22.11 4.75L21.93 4.52L21.75 4.3L21.55 4.08L21.36 3.87L21.16 3.66L20.95 3.45L20.74 3.26L20.53 3.06L20.31 2.87L20.08 2.69L19.85 2.51L19.62 2.34L19.38 2.17L19.14 2.01L18.9 1.85L18.65 1.7L18.39 1.56L18.14 1.42L17.88 1.29L17.61 1.16L17.35 1.04L17.08 0.92L16.8 0.81L16.52 0.71L16.24 0.62L15.96 0.53L15.67 0.45L15.38 0.37L15.09 0.3L14.8 0.24L14.5 0.18L14.2 0.14L13.9 0.09L13.59 0.06L13.29 0.03L12.98 0.02L12.66 0L12.35 0L12.04 0L11.73 0.02L11.42 0.03L11.11 0.06L10.8 0.09L10.5 0.14L10.2 0.18L9.91 0.24L9.61 0.3L9.32 0.37L9.03 0.45L8.74 0.53L8.46 0.62L8.18 0.71L7.9 0.81L7.63 0.92L7.36 1.04L7.09 1.16L6.82 1.29L6.56 1.42L6.31 1.56L6.05 1.7L5.81 1.85L5.56 2.01L5.32 2.17L5.08 2.34L4.85 2.51L4.62 2.69L4.4 2.87L4.18 3.06L3.96 3.26L3.75 3.45L3.54 3.66L3.34 3.87L3.15 4.08L2.96 4.3L2.77 4.52L2.59 4.75L2.41 4.98L2.24 5.21L2.08 5.45L1.92 5.7L1.77 5.94L1.62 6.2L1.48 6.45L1.34 6.71L1.21 6.97L1.09 7.24L0.97 7.51L0.86 7.78L0.75 8.06L0.65 8.34L0.56 8.62L0.47 8.91L0.39 9.2L0.32 9.49L0.26 9.79L0.2 10.08L0.15 10.38L0.1 10.69L0.07 10.99L0.04 11.3L0.02 11.61L0 11.92L0 11.96L0 11.99L0 12.02L0 12.06L0.01 12.09L0.01 12.12L0.01 12.15L0.02 12.18L0.02 12.21L0.03 12.24L0.04 12.28L0.05 12.31L0.05 12.34L0.06 12.37L0.07 12.39L0.08 12.42L0.1 12.45L0.11 12.48L0.12 12.51L0.13 12.54L0.15 12.56L0.16 12.59L0.18 12.62L0.19 12.65L0.21 12.67L0.23 12.7L0.25 12.72L0.26 12.75L0.28 12.77L0.3 12.79L0.32 12.82L0.34 12.84L0.37 12.86L0.39 12.88L0.41 12.91L0.43 12.93L0.46 12.95L0.48 12.97L0.5 12.98L0.53 13L0.55 13.02L0.58 13.04L0.61 13.05L0.63 13.07L0.66 13.09L0.69 13.1L0.71 13.12L0.74 13.13L0.77 13.14L0.8 13.15L0.83 13.16L0.86 13.18L0.89 13.19L0.92 13.19L0.95 13.2L0.98 13.21L1.01 13.22L1.04 13.22L1.07 13.23L1.11 13.23L1.14 13.24L1.17 13.24L1.2 13.24L1.23 13.25Z" transform="matrix(1 0 0 1 20.15 11.78)" fill="#414141"/>
<path d="M55.03 28.24L47.3 1.9L47.29 1.85L47.27 1.8L47.25 1.75L47.23 1.69L47.21 1.64L47.19 1.6L47.17 1.55L47.15 1.5L47.12 1.45L47.1 1.4L47.07 1.36L47.05 1.31L47.02 1.27L46.99 1.22L46.96 1.18L46.93 1.13L46.9 1.09L46.87 1.05L46.84 1.01L46.81 0.97L46.77 0.93L46.74 0.89L46.7 0.85L46.66 0.81L46.63 0.77L46.59 0.73L46.55 0.7L46.51 0.66L46.47 0.63L46.43 0.6L46.39 0.56L46.35 0.53L46.31 0.5L46.26 0.47L46.22 0.44L46.18 0.41L46.13 0.38L46.09 0.36L46.04 0.33L45.99 0.31L45.95 0.28L45.9 0.26L45.85 0.24L45.8 0.22L45.75 0.19L45.71 0.18L45.66 0.16L45.61 0.14L45.56 0.12L45.51 0.11L45.45 0.09L45.4 0.08L45.35 0.07L45.3 0.06L45.25 0.05L45.19 0.04L45.14 0.03L45.09 0.02L45.03 0.01L44.98 0.01L44.93 0.01L44.87 0L44.82 0L44.76 0L10.38 0L10.32 0L10.27 0L10.21 0.01L10.16 0.01L10.11 0.01L10.05 0.02L10 0.03L9.95 0.04L9.89 0.05L9.84 0.06L9.79 0.07L9.74 0.08L9.69 0.09L9.64 0.11L9.59 0.12L9.54 0.14L9.49 0.16L9.44 0.18L9.39 0.19L9.34 0.22L9.29 0.24L9.24 0.26L9.2 0.28L9.15 0.31L9.1 0.33L9.06 0.36L9.01 0.38L8.97 0.41L8.92 0.44L8.88 0.47L8.84 0.5L8.79 0.53L8.75 0.56L8.71 0.6L8.67 0.63L8.63 0.66L8.59 0.7L8.55 0.74L8.51 0.77L8.48 0.81L8.44 0.85L8.41 0.89L8.37 0.93L8.34 0.97L8.3 1.01L8.27 1.05L8.24 1.09L8.21 1.13L8.18 1.18L8.15 1.22L8.12 1.27L8.09 1.31L8.07 1.36L8.04 1.4L8.02 1.45L7.99 1.5L7.97 1.55L7.95 1.6L7.93 1.65L7.91 1.7L7.89 1.75L7.87 1.8L7.85 1.85L7.84 1.9L0.11 28.24L0.1 28.28L0.09 28.32L0.08 28.36L0.07 28.39L0.06 28.43L0.05 28.47L0.05 28.51L0.04 28.55L0.03 28.58L0.03 28.62L0.02 28.66L0.02 28.7L0.01 28.74L0.01 28.78L0.01 28.81L0 28.85L0 28.89L0 28.93L0 28.97L0 29.01L0 29.04L0 29.08L0 29.12L0 29.16L0.01 29.19L0.01 29.23L0.01 29.27L0.02 29.31L0.02 29.34L0.03 29.38L0.03 29.42L0.04 29.46L0.05 29.49L0.06 29.53L0.06 29.57L0.07 29.6L0.08 29.64L0.09 29.68L0.1 29.71L0.11 29.75L0.12 29.79L0.14 29.82L0.15 29.86L0.16 29.89L0.17 29.93L0.19 29.97L0.2 30L0.22 30.04L0.23 30.07L0.25 30.11L0.27 30.14L0.28 30.17L0.3 30.21L0.32 30.24L0.34 30.28L0.36 30.31L0.38 30.34L0.4 30.38L0.42 30.41L0.44 30.44L0.46 30.48L0.48 30.51L0.51 30.54L0.53 30.57L0.55 30.6L0.58 30.64L0.6 30.67L0.63 30.7L0.65 30.73L0.68 30.76L0.71 30.78L0.73 30.81L0.76 30.84L0.79 30.87L0.81 30.9L0.84 30.92L0.87 30.95L0.9 30.97L0.93 31L0.96 31.02L0.99 31.05L1.02 31.07L1.05 31.1L1.08 31.12L1.11 31.14L1.14 31.16L1.17 31.18L1.2 31.2L1.23 31.23L1.26 31.25L1.3 31.26L1.33 31.28L1.36 31.3L1.39 31.32L1.43 31.34L1.46 31.36L1.5 31.37L1.53 31.39L1.56 31.4L1.6 31.42L1.63 31.43L1.67 31.45L1.7 31.46L1.74 31.47L1.77 31.49L1.81 31.5L1.85 31.51L1.88 31.52L1.92 31.53L1.96 31.54L1.99 31.55L2.03 31.56L2.07 31.57L2.1 31.58L2.14 31.58L2.18 31.59L2.22 31.6L2.26 31.6L2.29 31.61L2.33 31.61L2.37 31.62L2.41 31.62L2.45 31.62L2.49 31.63L2.53 31.63L2.57 31.63L2.61 31.63L2.65 31.63L52.49 31.63L52.53 31.63L52.57 31.63L52.61 31.63L52.65 31.63L52.69 31.62L52.73 31.62L52.77 31.62L52.81 31.61L52.85 31.61L52.88 31.6L52.92 31.6L52.96 31.59L53 31.58L53.04 31.58L53.07 31.57L53.11 31.56L53.15 31.55L53.18 31.54L53.22 31.53L53.26 31.52L53.29 31.51L53.33 31.5L53.37 31.49L53.4 31.47L53.44 31.46L53.47 31.45L53.51 31.43L53.54 31.42L53.58 31.4L53.61 31.39L53.64 31.37L53.68 31.35L53.71 31.34L53.74 31.32L53.78 31.3L53.81 31.28L53.84 31.26L53.88 31.24L53.91 31.22L53.94 31.2L53.97 31.18L54 31.16L54.03 31.14L54.06 31.12L54.09 31.09L54.12 31.07L54.15 31.05L54.18 31.02L54.21 31L54.24 30.97L54.27 30.95L54.3 30.92L54.33 30.89L54.35 30.87L54.38 30.84L54.41 30.81L54.43 30.78L54.46 30.75L54.49 30.72L54.51 30.69L54.54 30.66L54.56 30.63L54.59 30.6L54.61 30.57L54.63 30.54L54.66 30.51L54.68 30.47L54.7 30.44L54.72 30.41L54.74 30.38L54.76 30.34L54.78 30.31L54.8 30.28L54.82 30.24L54.84 30.21L54.86 30.17L54.87 30.14L54.89 30.1L54.91 30.07L54.92 30.03L54.94 30L54.95 29.96L54.97 29.93L54.98 29.89L54.99 29.86L55 29.82L55.02 29.79L55.03 29.75L55.04 29.71L55.05 29.68L55.06 29.64L55.07 29.6L55.08 29.57L55.08 29.53L55.09 29.49L55.1 29.46L55.1 29.42L55.11 29.38L55.12 29.34L55.12 29.31L55.12 29.27L55.13 29.23L55.13 29.19L55.13 29.16L55.14 29.12L55.14 29.08L55.14 29.04L55.14 29.01L55.14 28.97L55.14 28.93L55.14 28.89L55.14 28.85L55.13 28.81L55.13 28.78L55.13 28.74L55.12 28.7L55.12 28.66L55.11 28.62L55.11 28.59L55.1 28.55L55.09 28.51L55.09 28.47L55.08 28.43L55.07 28.39L55.06 28.36L55.05 28.32L55.04 28.28L55.03 28.24ZM47.82 12.77L28.85 12.77L28.85 2.56L44.83 2.56L47.82 12.77ZM10.31 2.56L26.29 2.56L26.29 12.77L7.32 12.77L10.31 2.56ZM6.56 15.33L26.29 15.33L26.29 29.07L2.53 29.07L6.56 15.33ZM28.85 29.07L28.85 15.33L48.58 15.33L52.61 29.07L28.85 29.07Z" transform="matrix(1 0 0 1 4.93 30.59)" fill="#414141"/>
</svg>
